<svg id="Layer_1" data-name="Layer 1" xmlns="http://www.w3.org/2000/svg" viewBox="0 0 216 84.86"><defs><style>.cls-1{fill:#fff;}</style></defs><rect class="cls-1" x="0.5" y="0.5" width="82.73" height="25.02"/><path d="M125.73,65V89H44V65h81.73m1-1H43V90h83.73V64Z" transform="translate(-43 -64)"/><rect class="cls-1" x="28.79" y="27.66" width="25.02" height="56.71"/><path d="M96.31,92.16v55.7h-24V92.16h24m1-1h-26v57.7h26V91.16Z" transform="translate(-43 -64)"/><polygon class="cls-1" points="58.21 84.36 58.21 29.92 83.23 29.92 83.23 33.31 103.6 33.31 103.6 58.34 83.23 58.34 83.23 84.36 58.21 84.36"/><path d="M125.73,94.42v3.39H146.1v24H125.73v26h-24V94.42h24m1-1h-26v55.44h26v-26H147.1v-26H126.73V93.42Z" transform="translate(-43 -64)"/><rect class="cls-1" x="105.73" y="0.5" width="25.02" height="83.86"/><path d="M173.25,65v82.86h-24V65h24m1-1h-26v84.86h26V64Z" transform="translate(-43 -64)"/><path class="cls-1" d="M178.15,148.36V64.5h39.93l40.31,70.75-21.68,12.68L204.45,91.32a.66.66,0,0,0-.59-.35.69.69,0,0,0-.69.69v56.7Z" transform="translate(-43 -64)"/><path d="M217.79,65l14.43,25.33,25.49,44.74L236.9,147.25l-32-56.18a1.19,1.19,0,0,0-2.22.59v56.2h-24V65h39.14m.47-1H177.83a.18.18,0,0,0-.18.19v84.48a.18.18,0,0,0,.18.19h25.65a.18.18,0,0,0,.19-.19v-57a.18.18,0,0,1,.19-.19.19.19,0,0,1,.16.09l32.41,56.9a.2.2,0,0,0,.17.09l.09,0,22.22-13a.2.2,0,0,0,.07-.26L233.09,89.84,218.42,64.09a.19.19,0,0,0-.16-.09Z" transform="translate(-43 -64)"/></svg>